<svg width="18" height="18" viewBox="0 0 18 18" fill="none" xmlns="http://www.w3.org/2000/svg">
<path d="M15.6667 0.666656H2.33333C1.41667 0.666656 0.675001 1.41666 0.675001 2.33332L0.666668 17.3333L4 14H15.6667C16.5833 14 17.3333 13.25 17.3333 12.3333V2.33332C17.3333 1.41666 16.5833 0.666656 15.6667 0.666656ZM13.1667 10.6667H4.83333C4.375 10.6667 4 10.2917 4 9.83332C4 9.37499 4.375 8.99999 4.83333 8.99999H13.1667C13.625 8.99999 14 9.37499 14 9.83332C14 10.2917 13.625 10.6667 13.1667 10.6667ZM13.1667 8.16666H4.83333C4.375 8.16666 4 7.79166 4 7.33332C4 6.87499 4.375 6.49999 4.83333 6.49999H13.1667C13.625 6.49999 14 6.87499 14 7.33332C14 7.79166 13.625 8.16666 13.1667 8.16666ZM13.1667 5.66666H4.83333C4.375 5.66666 4 5.29166 4 4.83332C4 4.37499 4.375 3.99999 4.83333 3.99999H13.1667C13.625 3.99999 14 4.37499 14 4.83332C14 5.29166 13.625 5.66666 13.1667 5.66666Z" fill="#DADEE6"/>
</svg>
