<svg width="14" height="18" viewBox="0 0 14 18" fill="none" xmlns="http://www.w3.org/2000/svg">
<path d="M7.975 0.666664H2C1.08333 0.666664 0.333333 1.41666 0.333333 2.33333V15.6667C0.333333 16.5833 1.08333 17.3333 2 17.3333H12C12.9167 17.3333 13.6667 16.5833 13.6667 15.6667V6.35833C13.6667 5.91666 13.4917 5.49166 13.175 5.18333L9.15 1.15833C8.84167 0.841664 8.41667 0.666664 7.975 0.666664ZM10.3333 11.5C10.3333 13.45 8.65833 15.0083 6.675 14.8167C4.94167 14.65 3.66667 13.1 3.66667 11.3583V7.03333C3.66667 5.94166 4.45 4.95 5.53333 4.84166C6.78333 4.71666 7.83333 5.69166 7.83333 6.91666V10.6667C7.83333 11.125 7.45833 11.5 7 11.5C6.54167 11.5 6.16667 11.125 6.16667 10.6667V6.91666C6.16667 6.68333 5.98333 6.5 5.75 6.5C5.51667 6.5 5.33333 6.68333 5.33333 6.91666V11.4083C5.33333 12.2417 5.9 13.0083 6.71667 13.1417C7.76667 13.3167 8.66667 12.5083 8.66667 11.5V9C8.66667 8.54166 9.04167 8.16666 9.5 8.16666C9.95833 8.16666 10.3333 8.54166 10.3333 9V11.5ZM8.66667 4.83333V2.33333L12 5.66666H9.5C9.04167 5.66666 8.66667 5.29166 8.66667 4.83333Z" fill="#DADEE6"/>
</svg>
